<?xml version="1.0" standalone="no"?>
<!DOCTYPE svg PUBLIC "-//W3C//DTD SVG 20010904//EN"
 "http://www.w3.org/TR/2001/REC-SVG-20010904/DTD/svg10.dtd">
<svg version="1.0" xmlns="http://www.w3.org/2000/svg"
 width="1000.000000pt" height="1000.000000pt" viewBox="0 0 1000.000000 1000.000000"
 preserveAspectRatio="xMidYMid meet">

<g transform="translate(0.000000,1000.000000) scale(0.100000,-0.100000)"
fill="#000000" stroke="none">
<path d="M5093 7128 c-11 -17 -10 -16 -12 -121 l-1 -94 -57 -9 c-74 -12 -94
-37 -101 -132 -4 -61 -2 -72 17 -91 11 -11 31 -21 44 -21 22 0 65 24 79 44 14
21 26 -9 30 -72 5 -70 19 -93 46 -76 15 10 17 37 20 250 2 169 -1 250 -9 277
-14 42 -43 65 -56 45z m-43 -279 c14 -56 -30 -153 -60 -134 -27 17 14 172 43
162 6 -2 14 -14 17 -28z"/>
<path d="M5280 6885 c-7 -31 -17 -58 -22 -61 -4 -3 -8 -29 -8 -57 0 -131 108
-170 171 -62 13 22 30 35 50 39 32 6 99 65 99 86 0 6 -12 -2 -26 -19 -20 -24
-34 -31 -61 -31 -35 0 -35 0 -31 38 5 38 -3 61 -36 100 -16 17 -30 22 -71 22
l-52 0 -13 -55z m110 6 c0 -9 3 -26 6 -39 5 -17 3 -21 -9 -16 -17 6 -40 61
-32 75 9 13 35 -1 35 -20z m-25 -124 c23 -21 24 -24 9 -45 -16 -23 -39 -29
-49 -12 -6 10 4 80 12 80 2 0 15 -10 28 -23z"/>
<path d="M4647 6914 c-4 -4 -7 -20 -7 -34 0 -15 -7 -33 -15 -40 -8 -6 -17 -22
-21 -33 -23 -76 -75 -160 -89 -145 -3 3 -14 45 -25 94 -26 122 -59 148 -127
102 -26 -19 -55 -62 -58 -88 -2 -15 -60 -118 -77 -137 l-20 -22 -35 27 c-32
26 -34 29 -27 75 9 69 -12 97 -71 97 -37 0 -52 -6 -84 -35 -21 -20 -42 -48
-46 -63 -3 -15 -12 -34 -19 -42 -6 -8 -22 -47 -36 -86 -13 -39 -30 -80 -37
-90 -14 -18 -15 -18 -28 0 -8 10 -26 52 -41 95 -34 95 -40 104 -65 91 -16 -9
-18 -18 -12 -58 3 -26 9 -51 13 -57 4 -5 11 -28 14 -50 10 -54 51 -115 77
-115 37 0 74 50 102 138 15 46 27 88 27 93 0 6 11 35 25 64 27 59 61 88 97 83
48 -7 30 -99 -27 -136 -59 -37 -70 -102 -18 -102 25 0 84 50 95 80 8 23 28 0
38 -44 7 -32 4 -41 -26 -81 -48 -62 -66 -116 -53 -154 12 -33 37 -46 72 -35
62 19 91 81 83 177 -6 60 -4 71 19 107 14 22 25 44 25 49 0 22 22 20 43 -4 29
-34 52 -25 70 28 14 43 47 64 47 30 0 -29 48 -93 71 -93 23 0 57 32 82 80 15
27 20 31 27 19 5 -7 7 -22 4 -31 -8 -27 5 -58 25 -58 24 0 37 17 46 60 8 39
50 161 65 191 6 10 17 19 25 19 12 0 15 -19 15 -99 0 -112 11 -154 38 -149 12
2 18 15 20 48 5 69 -17 213 -34 226 -23 18 -54 4 -76 -33 -25 -41 -41 -38 -48
8 -5 32 -27 49 -43 33z m-251 -111 c-11 -59 -37 -133 -47 -133 -13 0 -11 87 2
113 13 24 39 57 47 57 2 0 1 -17 -2 -37z m-236 -387 c0 -41 -33 -87 -50 -70
-11 11 5 57 32 92 15 18 18 15 18 -22z"/>
<path d="M5805 6853 c-18 -43 -61 -220 -58 -235 5 -20 24 -28 51 -21 15 3 27
23 40 62 24 71 67 141 87 141 21 0 19 -11 -15 -83 -34 -73 -35 -80 -16 -97 12
-9 19 -6 38 17 46 56 115 123 128 123 14 0 12 -6 -20 -94 -26 -73 -20 -109 21
-126 35 -15 74 -2 110 36 30 32 39 30 39 -7 0 -38 26 -84 54 -97 30 -13 74 2
112 39 18 17 36 29 41 26 5 -3 28 -1 51 5 24 6 45 8 49 5 3 -3 -7 -27 -21 -52
-35 -58 -32 -99 6 -103 22 -3 32 5 62 50 46 70 56 81 89 102 36 24 35 6 -4
-52 -43 -64 -51 -88 -33 -102 11 -10 22 -5 58 28 61 56 126 88 126 62 0 -5
-13 -31 -30 -56 -41 -66 -48 -110 -22 -136 28 -28 72 -26 128 7 25 15 48 24
51 21 3 -3 -2 -24 -11 -48 -39 -96 5 -145 121 -132 l65 7 -17 -27 c-14 -21
-15 -29 -5 -41 18 -21 27 -19 84 19 51 33 141 78 184 91 38 11 26 -19 -30 -81
-98 -105 -116 -144 -68 -144 30 0 160 172 160 211 0 30 -36 43 -82 29 -22 -6
-43 -9 -46 -6 -3 4 5 20 17 37 43 57 5 80 -51 30 -52 -46 -147 -81 -218 -81
-70 0 -78 9 -55 61 24 55 39 69 76 69 33 0 89 41 89 65 0 34 -88 63 -105 35
-3 -5 -17 -10 -29 -10 -13 0 -41 -14 -62 -31 -53 -42 -113 -72 -131 -65 -20 8
-10 47 29 111 17 27 31 63 32 80 1 27 -2 30 -32 33 -20 2 -49 -5 -73 -17 -22
-12 -42 -21 -45 -21 -4 0 -3 16 0 34 6 29 3 37 -15 46 -12 7 -36 9 -56 5 l-34
-6 6 34 c5 25 2 37 -10 47 -15 13 -21 10 -47 -23 -45 -56 -101 -80 -136 -59
-10 7 -11 19 -3 54 18 79 -15 130 -90 140 -20 2 -38 -12 -92 -74 -77 -88 -118
-121 -141 -112 -21 8 -20 26 4 94 11 30 19 72 20 93 0 35 -1 37 -33 37 -24 0
-45 -10 -75 -36 -44 -37 -45 -37 -42 8 2 37 -37 57 -75 40 -34 -16 -35 -15
-35 7 0 34 -12 51 -35 51 -13 0 -26 -8 -30 -17z m579 -181 c-8 -42 -21 -41
-30 2 -8 43 3 64 22 44 10 -9 12 -25 8 -46z m-51 -88 c18 -24 18 -26 1 -45 -9
-10 -26 -19 -37 -19 -17 0 -18 5 -12 37 11 62 20 67 48 27z m777 -208 c0 -19
-47 -49 -55 -35 -8 12 23 49 42 49 7 0 13 -6 13 -14z"/>
<path d="M3702 6770 c-27 -30 -28 -40 -2 -40 22 0 34 19 28 47 -3 15 -6 15
-26 -7z"/>
<path d="M3522 6592 c-11 -11 -23 -34 -27 -51 -10 -45 -22 -47 -40 -6 -10 26
-20 35 -32 33 -23 -4 -22 -34 2 -153 26 -127 34 -146 65 -143 25 3 25 3 21 91
-2 48 0 113 4 143 10 80 30 69 69 -37 17 -47 38 -97 48 -110 15 -22 18 -23 33
-8 15 14 14 20 -5 70 -37 96 -85 184 -102 187 -9 2 -26 -6 -36 -16z"/>
<path d="M3173 6513 c-13 -9 -23 -26 -23 -40 0 -27 47 -77 82 -89 19 -6 20
-11 14 -81 -7 -91 -36 -163 -65 -163 -21 0 -66 47 -76 81 -4 12 -1 32 6 45 20
38 1 98 -31 102 -44 5 -63 -18 -62 -76 2 -85 68 -193 128 -208 77 -19 117 41
122 184 3 77 7 93 19 90 33 -6 52 -51 54 -123 2 -72 15 -105 53 -137 41 -34
85 -8 46 27 -12 11 -21 38 -26 73 -9 72 -50 150 -94 180 -25 16 -42 40 -61 85
-28 67 -47 79 -86 50z m53 -60 c-4 -4 -11 -1 -16 7 -16 25 -11 35 7 17 9 -9
13 -20 9 -24z m-134 -128 c9 -19 9 -28 0 -37 -15 -15 -20 -9 -28 30 -8 39 11
44 28 7z"/>
<path d="M2696 6348 l-88 -53 5 -50 c10 -90 103 -237 184 -294 56 -38 136 -37
195 5 54 38 79 78 59 96 -11 11 -15 10 -25 -6 -31 -52 -52 -69 -78 -63 -27 7
-138 102 -138 118 0 6 18 29 41 52 31 32 36 43 24 45 -9 2 -34 -8 -57 -23 -47
-31 -57 -26 -97 48 l-24 44 52 48 c45 42 67 85 43 85 -5 0 -48 -24 -96 -52z"/>
<path d="M7675 6220 c-25 -22 -52 -40 -58 -40 -13 0 -38 25 -54 54 -8 15 -11
15 -22 3 -10 -13 -6 -22 19 -50 16 -19 30 -37 30 -39 0 -3 -43 -48 -96 -99
-142 -138 -235 -246 -228 -264 4 -9 18 -15 36 -15 25 0 52 24 180 155 83 85
158 155 166 155 9 0 33 -12 53 -26 21 -14 43 -24 50 -22 7 2 -6 17 -29 34 -23
16 -42 36 -42 44 0 8 18 28 40 43 40 28 57 63 46 92 -9 26 -43 17 -91 -25z"/>
<path d="M2393 6136 c-21 -19 -45 -47 -53 -63 -8 -15 -18 -30 -21 -33 -12 -9
-86 -174 -93 -207 -12 -53 9 -40 60 37 26 39 49 70 51 70 2 0 48 -39 101 -86
169 -151 247 -199 279 -172 30 25 7 52 -132 155 -77 56 -157 113 -177 126 -39
22 -46 38 -28 60 41 50 90 123 87 132 -8 22 -37 15 -74 -19z"/>
<path d="M3770 6138 c0 -3 133 -138 296 -301 163 -163 293 -300 290 -306 -3
-5 -14 -8 -24 -6 -9 2 -53 4 -97 4 l-80 1 -187 187 -188 187 0 -42 c0 -23 -4
-42 -10 -42 -5 0 -10 24 -10 53 0 43 -5 58 -23 75 -26 25 -43 28 -50 10 -3 -7
-4 0 -4 16 3 54 -63 62 -71 8 -2 -11 -9 -19 -15 -16 -7 2 -42 -27 -79 -65
l-68 -68 0 -90 c0 -85 -1 -91 -27 -114 l-28 -24 23 26 c19 22 22 36 22 109 l0
84 -30 -29 c-17 -16 -28 -37 -27 -49 1 -16 -3 -20 -18 -19 -15 1 -88 -65 -257
-235 -129 -130 -239 -247 -242 -259 -4 -13 -15 -23 -24 -23 -10 0 -44 -27 -77
-60 l-59 -60 70 0 c62 0 73 -3 94 -25 20 -21 32 -25 85 -25 53 0 65 4 85 25
22 23 30 25 120 25 101 0 125 8 132 45 2 12 13 21 26 23 20 3 23 0 20 -20 -2
-15 -11 -24 -25 -26 -12 -2 -27 -10 -33 -18 -9 -10 -37 -14 -109 -14 -95 0
-98 -1 -126 -30 -26 -27 -35 -30 -90 -30 -55 0 -64 3 -90 30 -27 28 -34 30
-101 30 -71 0 -73 -1 -115 -41 l-43 -41 23 -19 c27 -22 93 -26 109 -6 10 12
12 17 12 38 0 14 42 7 47 -7 7 -20 -65 -54 -112 -54 -33 0 -50 6 -65 22 l-20
22 -70 -69 c-74 -73 -88 -103 -20 -41 l40 36 233 0 233 0 44 45 45 46 67 -2
c44 -1 73 3 83 11 13 11 19 11 32 -2 28 -28 7 -35 -89 -31 l-93 5 -45 -46 -44
-46 -236 0 -236 0 -39 -40 c-21 -22 -46 -40 -55 -40 -19 0 -40 -19 -40 -37 0
-9 18 -13 63 -13 60 0 65 2 102 40 l39 40 136 0 136 0 29 -30 c36 -38 51 -38
91 1 33 32 34 32 133 31 55 0 103 3 106 9 9 14 42 11 48 -5 8 -21 -20 -43 -35
-28 -8 8 -50 12 -113 12 -99 0 -102 -1 -130 -30 -37 -39 -73 -39 -110 0 l-29
30 -126 0 -126 0 -44 -45 c-37 -38 -50 -44 -89 -47 l-46 -3 49 -48 c78 -77
101 -80 160 -18 l30 31 160 0 160 0 31 29 30 30 184 2 c143 2 186 -1 189 -10
6 -19 -19 -31 -39 -20 -10 5 -89 9 -177 9 -156 0 -159 0 -182 -25 -23 -25 -26
-25 -183 -25 l-160 0 -41 -37 c-53 -48 -55 -53 -14 -53 25 0 42 -8 63 -30 l29
-30 36 35 36 35 139 0 139 0 38 -37 c36 -35 40 -36 101 -34 49 2 68 -2 87 -17
14 -10 33 -22 43 -25 24 -9 18 -42 -8 -42 -12 0 -21 8 -23 20 -8 38 -22 45
-96 45 -71 0 -73 1 -111 40 l-39 40 -131 0 -131 0 -34 -35 c-19 -19 -39 -35
-45 -35 -6 0 -24 14 -40 30 -21 22 -38 30 -64 30 l-36 0 70 -70 c75 -74 113
-90 151 -65 13 8 24 25 26 37 2 15 11 24 26 26 20 3 23 0 20 -20 -2 -13 -11
-24 -23 -27 -11 -2 -25 -11 -31 -19 -7 -9 -25 -17 -40 -18 -16 -1 -31 -3 -34
-4 -7 -1 454 -450 463 -450 4 0 7 -6 7 -13 0 -17 74 -89 83 -81 4 4 7 2 7 -4
0 -6 42 -52 93 -101 l92 -90 3 46 c3 36 -2 51 -20 72 -23 26 -23 26 7 -1 27
-24 31 -34 29 -75 -2 -50 20 -97 42 -89 7 3 15 -5 18 -18 3 -13 22 -36 42 -51
l36 -28 99 99 c54 54 99 102 99 106 0 5 -42 8 -94 8 -124 0 -126 2 -119 148 2
59 9 113 15 120 8 9 303 12 1414 12 1387 0 1403 0 1414 -20 6 -11 11 -68 11
-127 1 -129 -2 -133 -103 -133 -37 0 -68 -1 -68 -2 0 -2 45 -50 100 -108 70
-74 102 -102 110 -94 7 7 5 16 -10 29 -11 10 -20 22 -20 27 0 4 9 -1 20 -12
11 -11 25 -20 30 -20 14 0 126 111 123 122 -2 4 3 8 10 8 15 0 137 123 137
139 0 6 5 11 12 11 6 0 26 15 43 33 17 17 153 153 303 300 149 147 272 270
272 272 0 3 -15 5 -32 5 -22 0 -41 9 -57 25 -20 21 -32 25 -84 25 -53 0 -65
-4 -90 -27 -26 -26 -36 -28 -130 -33 -100 -5 -102 -6 -115 -33 -16 -32 -47
-33 -47 -2 0 13 8 21 22 23 12 2 27 10 33 18 9 10 37 14 107 14 92 0 97 1 130
30 29 26 42 30 91 30 52 0 62 -3 87 -30 45 -47 84 -42 150 21 57 54 62 67 23
63 -13 -1 -29 -3 -35 -3 -7 -1 -13 -9 -13 -19 0 -24 -19 -42 -36 -35 -8 3 -14
13 -14 22 0 21 58 48 116 54 23 2 46 7 53 11 33 21 -3 26 -183 26 l-194 0 -48
-45 c-26 -25 -50 -45 -53 -46 -48 -4 -121 -2 -121 4 0 4 27 7 60 7 58 0 63 2
108 45 l47 45 208 0 c153 0 212 3 221 13 7 6 34 32 61 56 45 41 47 45 30 58
-21 15 -37 7 -96 -46 -33 -31 -34 -31 -145 -31 -62 0 -118 -2 -126 -5 -7 -3
-29 10 -48 29 -43 44 -60 44 -104 5 -34 -29 -40 -31 -133 -33 -54 -1 -108 -6
-120 -10 -17 -6 -24 -4 -29 9 -9 22 14 37 37 24 10 -5 60 -9 112 -9 90 0 95 1
127 30 42 38 67 38 108 0 33 -30 33 -30 158 -30 l125 0 48 45 c26 25 54 45 62
45 7 0 -9 23 -36 50 -27 28 -54 50 -60 50 -6 0 -24 -13 -40 -30 l-29 -30 -162
0 c-160 0 -163 0 -193 -26 -31 -26 -33 -26 -190 -25 -101 1 -162 -2 -166 -9
-8 -13 -42 -13 -51 1 -3 6 1 18 10 27 12 13 18 14 28 4 8 -8 60 -12 171 -12
155 0 160 1 189 25 29 24 33 25 192 25 l162 0 32 33 c18 18 32 36 32 39 0 4
-13 9 -30 13 -16 4 -41 20 -54 36 l-25 30 -39 -36 -39 -35 -135 0 -134 0 -34
35 c-33 34 -37 35 -107 35 -58 0 -76 4 -90 19 -10 10 -27 21 -38 23 -27 5 -27
43 0 43 12 0 21 -8 23 -20 7 -38 22 -45 96 -45 69 0 72 -2 115 -40 l44 -40
127 0 126 0 34 35 c19 19 38 35 43 35 5 0 25 -14 44 -31 19 -16 37 -28 39 -26
5 5 -122 130 -137 135 -14 5 -40 -18 -50 -46 -10 -27 -42 -27 -47 0 -2 11 5
19 22 24 13 3 32 15 42 25 17 19 15 22 -66 104 -47 47 -88 85 -92 85 -5 0 -9
-8 -9 -17 -1 -10 -4 -2 -8 17 -5 31 -10 35 -36 35 -26 0 -30 4 -30 27 0 28
-39 78 -62 78 -7 0 -13 6 -13 14 0 21 -20 30 -33 17 -18 -18 -31 -12 -14 7 15
17 12 22 -49 81 -35 35 -67 61 -71 57 -9 -9 -34 15 -27 26 3 5 -2 19 -13 30
-18 20 -18 20 -24 -33 l-6 -54 -1 60 c-2 56 -5 64 -40 98 -21 20 -48 37 -60
37 -17 0 -22 6 -22 24 0 26 -24 51 -40 41 -5 -3 -10 2 -10 13 0 21 -53 76 -63
65 -4 -3 -7 3 -7 13 0 11 -18 37 -40 59 l-40 39 -25 -24 c-14 -13 -25 -29 -25
-37 0 -7 -3 -12 -7 -11 -5 2 -28 -16 -53 -40 -25 -23 -48 -42 -52 -42 -5 0 -8
-7 -8 -15 0 -9 -8 -18 -17 -22 -10 -3 -87 -75 -171 -159 l-153 -154 -72 -1
c-40 0 -82 -2 -94 -5 -16 -3 -23 1 -23 12 0 8 98 115 218 236 119 121 216 226
216 233 -1 8 4 11 11 9 7 -3 35 22 64 55 l52 59 -340 0 c-275 -1 -341 -4 -345
-15 -7 -17 -35 -17 -42 1 -4 11 -81 13 -442 12 l-437 -1 -6 -40 -6 -40 -2 42
-1 41 -107 0 c-60 0 -113 -4 -120 -10 -9 -7 -13 -7 -13 0 0 13 -160 13 -177
-1 -9 -6 -17 -6 -26 1 -7 6 -38 11 -68 11 -29 1 -61 1 -69 2 -8 0 -101 0 -206
-1 -105 0 -198 2 -207 6 -9 3 -17 4 -17 2z m440 -33 c0 -8 -4 -15 -9 -15 -13
0 -22 16 -14 24 11 11 23 6 23 -9z m27 -47 c-2 -13 -4 -5 -4 17 -1 22 1 32 4
23 2 -10 2 -28 0 -40z m72 -5 c1 -7 -6 -13 -15 -13 -12 0 -15 6 -10 23 3 12 6
29 7 37 1 15 16 -24 18 -47z m356 17 l30 -35 -32 29 c-18 17 -33 34 -33 40 0
5 1 7 3 5 1 -2 16 -20 32 -39z m224 7 l25 -32 -32 29 c-33 31 -37 36 -24 35 4
0 18 -14 31 -32z m88 -14 c-3 -10 -5 -2 -5 17 0 19 2 27 5 18 2 -10 2 -26 0
-35z m-1020 5 c-3 -7 -5 -2 -5 12 0 14 2 19 5 13 2 -7 2 -19 0 -25z m558 6 c9
-15 12 -23 6 -20 -11 7 -35 46 -28 46 3 0 12 -12 22 -26z m673 9 c-4 -22 -22
-20 -26 1 -2 10 3 16 13 16 10 0 15 -7 13 -17z m706 -33 c0 -27 -3 -53 -7 -57
-4 -3 -7 19 -7 50 0 32 3 57 8 57 4 0 7 -22 6 -50z m62 39 c8 -14 -18 -31 -30
-19 -9 9 0 30 14 30 5 0 12 -5 16 -11z m-590 -30 c8 -14 -5 -29 -20 -23 -8 3
-16 14 -19 23 -3 14 0 17 14 14 11 -3 22 -9 25 -14z m377 -4 c-10 -13 -22 -25
-27 -25 -5 0 1 11 14 25 30 32 36 32 13 0z m-1733 0 c0 -8 -4 -15 -9 -15 -13
0 -22 16 -14 24 11 11 23 6 23 -9z m80 0 c0 -8 -7 -15 -15 -15 -8 0 -15 7 -15
15 0 8 7 15 15 15 8 0 15 -7 15 -15z m1141 -28 l-24 -22 19 27 c10 14 21 24
23 22 3 -3 -6 -15 -18 -27z m271 -49 c2 -25 0 -44 -4 -41 -5 2 -7 32 -7 66 2
65 6 55 11 -25z m-1305 25 c-3 -10 -5 -2 -5 17 0 19 2 27 5 18 2 -10 2 -26 0
-35z m1393 44 c0 -2 -10 -12 -22 -23 l-23 -19 19 23 c18 21 26 27 26 19z
m-1652 -18 c-2 -6 -8 -10 -13 -10 -5 0 -11 4 -13 10 -2 6 4 11 13 11 9 0 15
-5 13 -11z m463 -12 c-10 -9 -11 -8 -5 6 3 10 9 15 12 12 3 -3 0 -11 -7 -18z
m1719 -3 c0 -14 -21 -19 -33 -7 -9 9 13 34 24 27 5 -3 9 -12 9 -20z m-1842 -3
c3 -8 -1 -12 -9 -9 -7 2 -15 10 -17 17 -3 8 1 12 9 9 7 -2 15 -10 17 -17z m62
16 c0 -2 -10 -12 -22 -23 l-23 -19 19 23 c18 21 26 27 26 19z m510 -10 c0 -21
-12 -28 -27 -16 -19 16 -16 29 7 29 11 0 20 -6 20 -13z m230 -1 c0 -8 -7 -16
-15 -20 -12 -4 -13 -2 -2 14 14 24 17 25 17 6z m748 -3 c-4 -22 -22 -20 -26 1
-2 10 3 16 13 16 10 0 15 -7 13 -17z m402 2 c0 -8 -9 -15 -20 -15 -11 0 -20 7
-20 15 0 8 9 15 20 15 11 0 20 -7 20 -15z m-868 -61 c-3 -37 -10 -55 -30 -74
l-26 -25 22 26 c23 27 29 78 11 96 -13 13 -2 36 14 30 8 -2 11 -22 9 -53z
m1181 32 c-10 -13 -20 -22 -22 -20 -4 4 29 44 36 44 2 0 -4 -11 -14 -24z
m-2105 -3 c-4 -22 -22 -20 -26 1 -2 10 3 16 13 16 10 0 15 -7 13 -17z m759
-50 c-2 -16 -4 -5 -4 22 0 28 2 40 4 28 2 -13 2 -35 0 -50z m-1067 41 c0 -8
-4 -12 -10 -9 -5 3 -10 10 -10 16 0 5 5 9 10 9 6 0 10 -7 10 -16z m910 -9 c-6
-8 -9 -19 -5 -25 3 -5 1 -10 -4 -10 -15 0 -14 37 2 43 19 8 20 8 7 -8z m822
-17 c-9 -9 -15 -9 -24 0 -10 10 -10 15 2 22 9 6 19 5 24 0 7 -7 6 -14 -2 -22z
m-1657 -7 c-9 -16 -25 -3 -18 15 4 10 9 12 15 6 6 -6 7 -15 3 -21z m643 12
c-5 -25 -28 -28 -28 -4 0 12 6 21 16 21 9 0 14 -7 12 -17z m727 -3 c10 -11 16
-20 13 -20 -3 0 -13 9 -23 20 -10 11 -16 20 -13 20 3 0 13 -9 23 -20z m156 -7
c13 -16 12 -17 -3 -4 -10 7 -18 15 -18 17 0 8 8 3 21 -13z m-1411 -29 c0 -8
-9 -14 -20 -14 -19 0 -27 19 -14 33 10 9 34 -4 34 -19z m286 15 c10 -17 -13
-36 -27 -22 -12 12 -4 33 11 33 5 0 12 -5 16 -11z m108 -20 c-8 -14 -34 -11
-34 4 0 8 3 17 7 20 9 9 34 -13 27 -24z m1342 10 c10 -17 -13 -36 -27 -22 -12
12 -4 33 11 33 5 0 12 -5 16 -11z m-2351 -29 c18 0 30 -19 19 -30 -14 -14 -32
2 -37 30 -2 14 -2 19 0 13 3 -7 11 -13 18 -13z m1455 -22 c0 -10 -16 5 -40 37
-10 15 -7 14 13 -4 15 -14 27 -29 27 -33z m270 39 c0 -2 -10 -12 -22 -23 l-23
-19 19 23 c18 21 26 27 26 19z m-620 -23 c0 -9 -7 -14 -17 -12 -25 5 -28 28
-4 28 12 0 21 -6 21 -16z m980 -127 c23 -6 27 -37 5 -37 -23 0 -35 44 -33 118
l2 67 3 -71 c3 -61 7 -73 23 -77z m-1432 108 c-12 -26 -28 -29 -36 -7 -3 9 18
24 45 31 2 1 -3 -10 -9 -24z m1598 14 c10 -17 -13 -36 -27 -22 -12 12 -4 33
11 33 5 0 12 -5 16 -11z m484 -3 c0 -17 -27 -29 -35 -16 -4 6 -3 15 0 20 9 15
35 12 35 -4z m-1600 -9 c0 -2 -10 -12 -22 -23 l-23 -19 19 23 c18 21 26 27 26
19z m70 0 c0 -2 -10 -12 -22 -23 l-23 -19 19 23 c18 21 26 27 26 19z m1553
-186 l-27 -26 22 26 c18 21 22 39 24 110 l2 84 3 -84 c4 -82 3 -86 -24 -110z
m-1017 168 c10 -17 -13 -36 -27 -22 -12 12 -4 33 11 33 5 0 12 -5 16 -11z
m-903 -34 c1 -5 -6 -11 -15 -13 -11 -2 -18 3 -18 13 0 17 30 18 33 0z m381 -3
c2 -4 1 -14 -4 -22 -7 -11 -12 -12 -21 -3 -6 6 -8 16 -5 22 8 13 23 14 30 3z
m679 -53 c-4 -4 -14 -4 -22 1 -13 7 -13 11 -1 25 12 15 14 15 23 0 5 -10 5
-21 0 -26z m-1160 24 c9 -9 -13 -34 -24 -27 -14 8 -11 34 4 34 8 0 17 -3 20
-7z m873 -4 c10 -17 -13 -36 -27 -22 -12 12 -4 33 11 33 5 0 12 -5 16 -11z
m397 4 c9 -9 -13 -34 -24 -27 -14 8 -11 34 4 34 8 0 17 -3 20 -7z m-1986 -55
c-2 -13 -4 -5 -4 17 -1 22 1 32 4 23 2 -10 2 -28 0 -40z m2843 12 c0 -9 -10
-25 -22 -36 -23 -19 -23 -19 -5 2 20 24 22 45 5 64 -11 12 -10 12 5 1 9 -7 17
-21 17 -31z m-1480 -6 c0 -14 -21 -19 -33 -7 -9 9 13 34 24 27 5 -3 9 -12 9
-20z m1686 15 c10 -17 -13 -36 -27 -22 -12 12 -4 33 11 33 5 0 12 -5 16 -11z
m-1981 -9 c11 -17 -5 -32 -21 -19 -7 6 -11 15 -8 20 7 12 21 11 29 -1z m398
-5 c1 -5 -6 -11 -15 -13 -11 -2 -18 3 -18 13 0 17 30 18 33 0z m165 -17 c-7
-19 -38 -22 -38 -4 0 10 9 16 21 16 12 0 19 -5 17 -12z m-68 -18 c0 -11 -6
-20 -14 -20 -7 0 -16 9 -19 20 -4 15 0 20 14 20 12 0 19 -7 19 -20z m-1740
-146 c0 -62 4 -115 10 -119 12 -8 1 -37 -13 -32 -8 2 -10 45 -8 131 2 112 1
130 -16 149 l-18 22 23 -19 c20 -18 22 -27 22 -132z m1290 126 c0 -5 -5 -12
-11 -16 -14 -8 -33 11 -25 25 7 11 36 4 36 -9z m1780 16 c0 -2 -8 -10 -17 -17
-16 -13 -17 -12 -4 4 13 16 21 21 21 13z m-1074 -17 c10 -17 -13 -36 -27 -22
-12 12 -4 33 11 33 5 0 12 -5 16 -11z m-1855 -16 c13 -16 12 -17 -3 -4 -10 7
-18 15 -18 17 0 8 8 3 21 -13z m87 -72 l-2 -66 -3 65 c-2 35 -9 71 -16 80 -11
13 -10 13 6 1 13 -11 17 -27 15 -80z m2567 -88 c-16 -33 -34 -40 -43 -15 -2 7
8 16 22 22 24 9 26 14 28 82 l2 73 3 -64 c3 -44 -1 -74 -12 -98z m-2998 119
c-15 -15 -28 -37 -28 -48 -1 -18 -2 -18 -6 -1 -4 17 40 77 56 77 2 0 -7 -13
-22 -28z m1679 17 c10 -17 -13 -36 -27 -22 -12 12 -4 33 11 33 5 0 12 -5 16
-11z m420 0 c10 -17 -13 -36 -27 -22 -12 12 -4 33 11 33 5 0 12 -5 16 -11z
m1292 -88 l-2 -56 -3 55 c-3 38 -11 63 -26 80 l-22 25 28 -24 c24 -22 27 -31
25 -80z m52 74 c13 -14 21 -25 18 -25 -2 0 -15 11 -28 25 -13 14 -21 25 -18
25 2 0 15 -11 28 -25z m-3067 -118 c-3 -4 -11 -3 -19 4 -10 8 -12 15 -4 23 5
5 11 33 11 61 2 50 2 50 9 -15 4 -36 6 -69 3 -73z m-260 96 c4 -3 2 -12 -4
-19 -10 -12 -9 -171 1 -204 3 -8 -1 -15 -8 -15 -11 0 -14 28 -15 123 -2 115 3
138 26 115z m1463 -4 c10 -17 -13 -36 -27 -22 -12 12 -4 33 11 33 5 0 12 -5
16 -11z m1774 -3 c0 -21 -21 -31 -30 -15 -5 7 -6 17 -4 21 9 14 34 9 34 -6z
m-3371 -83 c-15 -18 -34 -1 -25 22 5 14 9 15 21 5 12 -10 13 -16 4 -27z m295
6 c-8 -14 -34 -11 -34 4 0 8 3 17 7 20 9 9 34 -13 27 -24z m2806 5 c0 -8 -7
-14 -15 -14 -15 0 -21 21 -9 33 10 9 24 -2 24 -19z m106 -9 c-5 -14 -9 -15
-21 -5 -12 10 -13 16 -4 27 15 18 34 1 25 -22z m294 12 c0 -8 -3 -17 -7 -20
-9 -9 -34 13 -27 24 8 14 34 11 34 -4z m-3005 -38 c0 -22 -27 -16 -36 8 -7 20
-6 21 14 14 12 -5 22 -15 22 -22z m-646 -53 c17 -17 31 -33 31 -38 0 -4 -18
12 -40 36 -22 24 -40 49 -39 57 0 8 4 5 9 -6 4 -11 22 -33 39 -49z m198 39
c-13 -27 -37 -34 -37 -10 0 9 10 20 23 25 12 5 23 9 24 9 0 1 -4 -10 -10 -24z
m3411 -8 c5 -24 -25 -21 -31 2 -3 13 0 18 12 16 9 -1 17 -9 19 -18z m-3533
-27 c10 -11 16 -20 13 -20 -3 0 -13 9 -23 20 -10 11 -16 20 -13 20 3 0 13 -9
23 -20z m3628 -4 c-10 -13 -20 -22 -22 -20 -4 4 29 44 36 44 2 0 -4 -11 -14
-24z m97 21 c0 -2 -12 -14 -27 -28 l-28 -24 24 28 c23 25 31 32 31 24z m-293
-29 c-3 -8 -6 -5 -6 6 -1 11 2 17 5 13 3 -3 4 -12 1 -19z m-87 -1 c0 -8 -3
-17 -7 -20 -9 -9 -34 13 -27 24 8 14 34 11 34 -4z m96 -38 c10 -17 -13 -36
-27 -22 -12 12 -4 33 11 33 5 0 12 -5 16 -11z m-3580 -90 c10 -17 -13 -36 -27
-22 -12 12 -4 33 11 33 5 0 12 -5 16 -11z m104 -3 c0 -8 -4 -17 -9 -21 -12 -7
-24 12 -16 25 9 15 25 12 25 -4z m3634 -24 c-16 -33 -44 -44 -44 -17 0 8 7 15
15 15 8 0 20 9 27 20 19 29 20 17 2 -18z m86 18 c0 -11 -7 -20 -15 -20 -8 0
-15 9 -15 20 0 11 7 20 15 20 8 0 15 -9 15 -20z m106 9 c10 -17 -13 -36 -27
-22 -12 12 -4 33 11 33 5 0 12 -5 16 -11z m-4009 -51 c-3 -8 -6 -5 -6 6 -1 11
2 17 5 13 3 -3 4 -12 1 -19z m281 10 c-3 -7 -11 -13 -18 -13 -7 0 -15 6 -17
13 -3 7 4 12 17 12 13 0 20 -5 18 -12z m3982 -24 c0 -8 -7 -14 -15 -14 -8 0
-15 2 -15 4 0 2 -3 11 -6 19 -4 12 0 14 15 10 12 -3 21 -12 21 -19z m-4246
-55 c-8 -14 -34 -11 -34 4 0 8 3 17 7 20 9 9 34 -13 27 -24z m4053 16 c7 -20
-2 -29 -21 -22 -9 4 -13 13 -10 22 8 19 23 19 31 0z m-2392 -85 l0 -75 -197
-3 -198 -2 0 -60 0 -60 180 0 180 0 0 -75 0 -75 -177 -2 -178 -3 0 -65 0 -65
200 -5 200 -5 0 -80 0 -80 -297 -3 -298 -2 0 370 0 370 293 -2 292 -3 0 -75z
m685 -5 l0 -85 -110 0 -110 0 -2 -282 -3 -283 -95 0 -95 0 -2 280 -2 280 -106
3 -105 3 0 84 0 85 315 0 315 0 0 -85z m648 8 l-3 -78 -192 -3 -193 -2 0 -60
0 -60 178 -2 177 -3 0 -70 0 -70 -179 -5 -178 -5 0 -65 0 -65 201 -3 201 -2 0
-85 0 -85 -300 0 -300 0 0 370 0 370 295 0 296 0 -3 -77z m-3094 26 c-8 -14
-34 -11 -34 4 0 8 3 17 7 20 9 9 34 -13 27 -24z m994 23 c9 -6 12 -33 10 -98
l-3 -89 -159 -3 c-108 -2 -163 1 -172 9 -15 12 -21 169 -7 182 9 10 316 8 331
-1z m2617 -92 l0 -95 -170 2 -170 1 -3 83 c-2 45 -1 88 2 96 5 11 39 13 173
11 l168 -3 0 -95z m642 85 c7 -20 -2 -29 -21 -22 -9 4 -13 13 -10 22 8 19 23
19 31 0z m-212 -5 c3 -5 27 -10 53 -10 41 0 52 -5 81 -35 27 -30 40 -35 79
-37 l47 -1 -45 -6 c-42 -6 -48 -4 -87 31 -34 30 -51 38 -81 38 -21 0 -43 -5
-48 -10 -13 -13 -44 -2 -44 14 0 25 32 36 45 16z m313 -88 c3 -16 -2 -22 -17
-22 -26 0 -36 17 -20 36 16 19 33 13 37 -14z m-523 -92 c9 -14 258 -13 272 1
15 15 43 4 43 -16 0 -20 -28 -31 -43 -16 -14 14 -253 15 -262 1 -8 -13 -42
-13 -50 0 -7 11 12 40 26 40 4 0 11 -4 14 -10z m-2841 -177 l-2 -87 -38 0
c-22 0 -92 1 -156 2 l-118 2 0 85 0 85 158 0 157 0 -1 -87z m2611 3 l0 -84
-118 -4 c-145 -4 -209 1 -204 15 2 6 54 9 149 8 l145 -2 -3 28 c-4 24 -3 25 5
8 7 -15 10 -6 10 38 l1 57 -146 0 c-132 0 -145 -2 -143 -17 3 -36 -1 -96 -7
-90 -9 9 -11 67 -2 67 4 0 3 12 -2 26 -6 14 -10 27 -10 30 0 2 73 4 163 4
l162 0 0 -84z m-3360 -166 c9 -14 248 -13 262 1 15 15 43 4 43 -16 0 -20 -28
-31 -43 -16 -16 16 -259 15 -275 -1 -9 -9 -16 -9 -28 4 -9 9 -13 21 -10 27 9
14 43 14 51 1z m3805 -50 c13 -9 13 -12 -3 -25 -21 -15 -47 -10 -47 9 0 26 24
33 50 16z m-3961 -66 c46 -2 58 -7 90 -38 30 -29 44 -36 77 -36 22 0 45 5 52
12 15 15 43 -7 35 -28 -6 -16 -39 -19 -48 -3 -4 6 -25 9 -46 8 -33 -3 -44 2
-77 34 -33 32 -44 37 -85 37 -26 0 -56 -6 -67 -12 -24 -15 -46 2 -36 27 5 13
12 15 29 10 12 -5 46 -9 76 -11z m497 -105 c10 -17 -13 -36 -27 -22 -12 12 -4
33 11 33 5 0 12 -5 16 -11z m-100 -40 c10 -17 -13 -36 -27 -22 -12 12 -4 33
11 33 5 0 12 -5 16 -11z m3412 -41 c-3 -7 -11 -13 -18 -13 -7 0 -15 6 -17 13
-3 7 4 12 17 12 13 0 20 -5 18 -12z m-3218 -11 c0 -7 -10 -17 -22 -22 -19 -8
-23 -19 -26 -66 -2 -47 -8 -60 -30 -80 l-27 -24 23 26 c16 18 22 38 22 71 0
51 24 108 46 108 8 0 14 -6 14 -13z m-457 -27 c3 -13 0 -20 -8 -20 -17 0 -28
17 -20 30 10 16 22 12 28 -10z m1686 6 c13 -15 -1 -32 -18 -21 -5 3 -12 1 -16
-5 -3 -5 3 -10 14 -10 28 0 27 -16 -1 -25 -22 -8 -22 -8 5 -12 39 -6 33 -23
-8 -23 -34 0 -35 1 -35 41 0 28 6 46 18 55 22 17 27 17 41 0z m-629 -11 c0 -8
-10 -16 -22 -16 l-23 -2 23 -4 c27 -5 29 -23 2 -23 -11 0 -20 -4 -20 -10 0 -5
9 -10 20 -10 11 0 20 -4 20 -10 0 -5 -16 -10 -35 -10 -35 0 -35 0 -35 44 0 46
7 54 48 55 13 1 22 -5 22 -14z m76 0 c18 -14 18 -14 -11 -15 l-30 0 25 -13
c32 -16 37 -43 12 -56 -16 -8 -25 -6 -44 10 l-23 20 34 -7 c23 -4 31 -3 27 5
-4 6 -13 11 -20 11 -8 0 -19 6 -25 14 -9 11 -8 18 4 30 20 20 26 20 51 1z m90
0 c19 -14 17 -16 -21 -19 -13 0 -20 -8 -20 -21 0 -16 6 -19 27 -17 21 2 26 -1
22 -13 -7 -18 -45 -20 -62 -3 -17 17 -15 48 5 70 20 22 24 22 49 3z m103 -11
c20 -26 21 -26 21 -5 0 14 5 21 13 18 7 -2 11 -15 9 -30 -3 -21 2 -29 20 -36
26 -10 48 3 48 28 0 17 18 41 30 41 10 0 44 -79 38 -86 -4 -3 -15 0 -27 8 -16
10 -23 10 -33 0 -6 -6 -30 -12 -51 -12 -31 0 -40 4 -44 20 l-6 21 -14 -21
c-26 -36 -83 -20 -83 24 0 23 27 56 46 56 7 0 22 -12 33 -26z m291 17 c3 -1
-2 -7 -11 -14 -8 -7 -15 -25 -15 -41 1 -16 -5 -31 -11 -33 -9 -3 -13 7 -13 31
0 20 -4 36 -10 36 -5 0 -10 6 -10 14 0 12 39 15 70 7z m158 -3 c19 -19 14 -29
-12 -22 -15 3 -25 1 -29 -9 -9 -23 8 -40 33 -32 16 5 21 4 18 -6 -3 -8 -15
-15 -27 -17 -46 -7 -68 43 -34 80 19 21 34 23 51 6z m220 0 c19 -19 14 -27
-15 -25 -22 2 -28 -2 -28 -18 0 -16 6 -20 28 -18 18 1 27 -2 24 -10 -2 -7 -17
-12 -33 -12 -39 0 -57 44 -29 75 21 23 36 25 53 8z m213 -3 c0 -5 -10 -13 -23
-17 l-23 -6 23 -1 c12 -1 22 -5 22 -10 0 -5 -10 -12 -22 -16 -22 -8 -22 -8 5
-12 39 -6 33 -23 -8 -23 -35 0 -35 0 -35 44 0 34 4 46 18 49 25 7 43 4 43 -8z
m73 9 c23 -9 19 -24 -6 -25 l-23 0 21 -9 c30 -12 38 -28 23 -46 -14 -18 -61
-15 -67 4 -3 9 4 11 25 6 l28 -6 -30 25 c-25 21 -28 27 -16 41 15 18 21 19 45
10z m96 -10 c0 -8 -4 -14 -10 -14 -5 0 -10 -16 -10 -35 0 -19 -4 -35 -10 -35
-5 0 -10 16 -10 35 0 19 -4 35 -10 35 -5 0 -10 6 -10 13 0 6 13 12 30 13 19 1
30 -4 30 -12z m158 0 c25 -17 29 -56 8 -73 -16 -14 -85 -12 -104 3 -10 7 -20
6 -34 -3 -28 -17 -30 -11 -15 35 19 54 43 56 58 5 14 -47 29 -45 29 4 0 29 8
41 30 44 3 1 16 -6 28 -15z m1042 1 c0 -8 -6 -15 -14 -15 -17 0 -28 14 -19 24
12 12 33 6 33 -9z m-1733 -26 l13 -24 0 28 c0 15 5 27 10 27 6 0 10 -20 10
-45 0 -48 -12 -58 -30 -25 -12 23 -32 28 -24 6 3 -8 1 -17 -5 -21 -7 -4 -11
10 -11 40 0 51 15 57 37 14z m73 -14 c0 -25 -4 -45 -10 -45 -5 0 -10 20 -10
45 0 25 5 45 10 45 6 0 10 -20 10 -45z m172 3 c21 -47 18 -55 -11 -36 -16 10
-23 10 -33 0 -30 -30 -36 -7 -12 44 21 45 35 43 56 -8z m498 13 c0 -33 18 -51
30 -31 4 7 5 20 3 30 -6 21 15 37 22 18 3 -7 1 -26 -3 -43 -7 -25 -14 -30 -38
-30 -27 0 -29 3 -32 43 -2 25 1 42 7 42 6 0 11 -13 11 -29z m128 7 c27 -56 24
-86 -6 -56 -10 10 -17 10 -32 0 -17 -10 -20 -10 -20 3 0 21 28 75 39 75 4 0
13 -10 19 -22z m52 -13 c0 -31 3 -35 25 -35 14 0 25 -5 25 -11 0 -6 -14 -9
-32 -7 -31 3 -33 6 -36 46 -2 25 1 42 7 42 6 0 11 -16 11 -35z m-2270 4 c0
-12 -29 -24 -37 -16 -3 4 -3 13 0 21 6 16 37 11 37 -5z m-400 -4 c0 -8 -6 -15
-14 -15 -17 0 -28 14 -19 24 12 12 33 6 33 -9z m103 0 c1 -5 -6 -11 -15 -13
-11 -2 -18 3 -18 13 0 17 30 18 33 0z m3563 -24 c-4 -6 -14 -11 -22 -11 -8 0
-14 -5 -14 -12 0 -6 -3 -8 -6 -5 -4 4 1 18 11 33 11 18 20 23 27 16 6 -6 7
-15 4 -21z m-448 -18 c2 -8 -5 -13 -17 -13 -12 0 -21 6 -21 16 0 18 31 15 38
-3z m-2951 -18 c7 -20 -2 -29 -21 -22 -9 4 -13 13 -10 22 8 19 23 19 31 0z
m3041 -12 c-5 -25 -28 -28 -28 -4 0 12 6 21 16 21 9 0 14 -7 12 -17z m108 6
c10 -17 -13 -36 -27 -22 -12 12 -4 33 11 33 5 0 12 -5 16 -11z m290 0 c10 -17
-13 -36 -27 -22 -12 12 -4 33 11 33 5 0 12 -5 16 -11z m-3345 -32 l-24 -22 19
27 c10 14 21 24 23 22 3 -3 -6 -15 -18 -27z m3036 -109 c-2 -18 -4 -4 -4 32 0
36 2 50 4 33 2 -18 2 -48 0 -65z m183 67 c0 -8 -9 -15 -20 -15 -20 0 -26 11
-13 23 12 13 33 7 33 -8z m-3402 -30 c-3 -3 -9 2 -12 12 -6 14 -5 15 5 6 7 -7
10 -15 7 -18z m-133 -6 c10 -30 2 -32 -12 -3 -6 13 -7 24 -3 24 5 0 12 -9 15
-21z m3565 18 c0 -2 -12 -14 -27 -28 l-28 -24 24 28 c23 25 31 32 31 24z m58
-17 c-7 -10 -14 -17 -17 -15 -4 4 18 35 25 35 2 0 -1 -9 -8 -20z m-3529 -44
c-1 -20 -2 -20 -6 -1 -3 11 -12 29 -22 40 -16 20 -16 20 7 1 12 -11 21 -29 21
-40z m3187 2 l29 -33 -32 29 c-18 17 -33 31 -33 33 0 8 8 1 36 -29z m-2986 2
c0 -11 -4 -20 -9 -20 -14 0 -23 18 -16 30 10 17 25 11 25 -10z m3297 -17 c-3
-10 -5 -4 -5 12 0 17 2 24 5 18 2 -7 2 -21 0 -30z m-139 -97 l-2 -81 -3 80
c-3 56 -9 85 -21 100 -17 20 -17 20 6 1 20 -17 22 -27 20 -100z m-3148 32 c0
-5 -9 -4 -20 2 -21 11 -25 22 -13 34 8 7 33 -21 33 -36z m3304 1 c-8 -14 -34
-11 -34 4 0 8 3 17 7 20 9 9 34 -13 27 -24z m-204 -2 c0 -2 -10 -12 -22 -23
l-23 -19 19 23 c18 21 26 27 26 19z m-3162 -50 l22 -24 -22 -18 c-23 -19 -23
-19 -6 0 17 18 17 20 -4 42 -12 13 -19 23 -16 23 2 0 14 -10 26 -23z m2992 19
c0 -2 -8 -10 -17 -17 -16 -13 -17 -12 -4 4 13 16 21 21 21 13z m34 -91 c4 -10
-1 -15 -14 -15 -11 0 -20 7 -20 15 0 8 6 15 14 15 8 0 16 -7 20 -15z m-2954
-79 c0 -2 -8 -10 -17 -17 -16 -13 -17 -12 -4 4 13 16 21 21 21 13z m2970 -9
c0 -2 -10 -12 -22 -23 l-23 -19 19 23 c18 21 26 27 26 19z m-19 -104 c13 -16
12 -17 -3 -4 -10 7 -18 15 -18 17 0 8 8 3 21 -13z"/>
<path d="M3660 4854 c-11 -3 -15 -20 -16 -64 l-1 -60 144 0 144 0 -3 63 -3 62
-125 1 c-69 1 -132 0 -140 -2z m247 -30 c-3 -3 -12 -4 -19 -1 -8 3 -5 6 6 6
11 1 17 -2 13 -5z"/>
<path d="M4444 4255 c-4 -9 -2 -21 4 -27 15 -15 44 -1 40 19 -4 23 -36 29 -44
8z"/>
<path d="M5670 4245 c0 -26 24 -35 32 -12 7 18 -2 37 -18 37 -8 0 -14 -10 -14
-25z"/>
<path d="M7642 5927 c-55 -29 -132 -104 -134 -131 -2 -37 3 -70 14 -83 16 -20
73 -26 113 -13 30 10 42 9 71 -5 19 -9 52 -15 72 -13 20 1 37 -2 36 -7 -1 -21
-18 -71 -34 -100 -14 -26 -24 -31 -70 -35 -41 -5 -58 -12 -76 -33 -31 -36 -30
-54 2 -83 42 -39 87 -33 141 21 l45 44 57 -28 c69 -35 115 -46 138 -32 15 9
13 10 -13 11 -28 0 -174 64 -174 76 0 7 25 67 48 114 9 19 29 41 44 49 25 15
29 14 52 -8 19 -18 26 -20 26 -10 0 8 -15 29 -33 47 -39 37 -77 41 -114 12
-30 -23 -99 -27 -125 -6 -24 18 -23 23 13 64 28 31 31 40 27 83 -4 35 -12 54
-29 68 -30 26 -44 25 -97 -2z m98 -46 c0 -11 -12 -33 -26 -48 l-26 -28 6 34
c9 52 46 86 46 42z m-116 -128 c-10 -7 -26 -13 -35 -13 -33 0 -32 21 2 56 l34
35 8 -33 c7 -26 5 -35 -9 -45z m114 -255 c-3 -7 -19 -21 -37 -32 -25 -14 -35
-16 -44 -7 -9 10 -7 17 12 32 26 21 75 26 69 7z"/>
<path d="M2040 5663 c-30 -38 -58 -73 -63 -80 -17 -23 36 -105 105 -163 104
-88 199 -125 273 -106 62 16 139 124 121 171 -10 26 -30 12 -37 -26 -8 -50
-16 -59 -57 -59 -37 0 -162 47 -162 60 0 4 9 27 20 51 36 81 19 94 -32 24 -18
-24 -36 -44 -40 -45 -3 0 -28 20 -55 44 l-48 44 28 56 c55 113 26 128 -53 29z"/>
<path d="M7827 5333 c-14 -13 -7 -43 12 -53 36 -19 61 -13 61 15 0 32 -52 60
-73 38z"/>
<path d="M7816 4584 c-14 -15 -26 -32 -26 -38 0 -21 40 -56 64 -56 52 0 76 75
34 104 -31 22 -41 20 -72 -10z m62 -16 c27 -27 3 -66 -33 -52 -17 7 -29 39
-20 54 8 14 38 13 53 -2z"/>
<path d="M7687 4513 c-4 -3 -7 -11 -7 -17 0 -6 5 -5 12 2 6 6 9 14 7 17 -3 3
-9 2 -12 -2z"/>
<path d="M7717 4481 c-17 -16 -29 -33 -24 -37 4 -4 18 3 32 16 33 31 43 19 15
-20 -42 -59 4 -83 61 -32 l32 29 -19 26 c-10 14 -29 30 -42 36 -19 9 -27 6
-55 -18z m83 -38 c0 -10 -32 -43 -42 -43 -12 0 -10 24 4 38 13 13 38 16 38 5z"/>
<path d="M2199 4439 c-16 -17 -29 -40 -29 -50 0 -23 55 -87 66 -76 4 4 -5 20
-19 35 -34 35 -34 47 -1 77 34 32 51 31 86 -2 15 -15 28 -21 28 -14 0 19 -53
60 -78 61 -14 0 -36 -13 -53 -31z"/>
<path d="M2577 4382 c-47 -47 -56 -83 -11 -41 20 18 26 20 39 9 12 -10 14 -23
9 -57 -4 -27 -2 -43 4 -43 6 0 12 12 14 28 2 20 9 28 28 30 23 3 50 26 50 44
0 13 -61 78 -74 78 -6 0 -33 -22 -59 -48z m88 -2 c16 -18 15 -50 -2 -50 -4 1
-19 10 -32 20 -19 17 -21 23 -11 35 16 20 23 19 45 -5z"/>
<path d="M7636 4391 c-19 -21 -18 -58 1 -78 20 -22 69 -16 86 11 22 32 9 41
-20 14 -19 -18 -28 -20 -41 -12 -25 16 -26 40 -3 63 14 14 16 21 8 21 -8 0
-22 -9 -31 -19z"/>
<path d="M2287 4322 c-21 -23 -21 -41 -1 -70 21 -30 58 -28 83 4 26 33 26 35
1 62 -25 27 -61 28 -83 4z m71 -29 c4 -28 -32 -50 -54 -32 -17 14 -18 31 -2
47 19 19 53 10 56 -15z"/>
<path d="M7528 4280 c-38 -34 -24 -41 16 -9 35 28 44 18 17 -19 -26 -37 -26
-48 -1 -62 17 -9 26 -5 57 25 l38 37 -35 29 c-44 36 -52 36 -92 -1z m85 -27
c8 -7 -21 -43 -35 -43 -12 0 -10 24 4 38 14 14 22 15 31 5z"/>
<path d="M2670 4258 c-11 -12 -20 -25 -20 -29 0 -11 41 -59 51 -59 6 0 1 12
-11 27 -25 32 -10 45 21 17 28 -26 36 -8 9 21 -27 28 -8 36 22 8 25 -22 36 -8
13 17 -24 26 -59 25 -85 -2z"/>
<path d="M2390 4225 c-41 -42 -32 -60 10 -20 17 17 35 25 44 22 24 -10 19 -28
-16 -58 -18 -15 -30 -31 -25 -35 4 -4 22 7 40 24 26 25 36 29 45 20 18 -18 15
-32 -13 -58 -13 -12 -22 -27 -19 -32 8 -12 64 41 64 60 0 13 -80 112 -91 112
-3 0 -20 -16 -39 -35z"/>
<path d="M7453 4203 c-31 -21 -29 -33 12 -73 41 -40 61 -33 22 8 -32 34 -34
52 -6 52 11 0 19 5 17 12 -6 18 -21 18 -45 1z"/>
<path d="M2750 4170 c-10 -25 -10 -34 4 -55 28 -43 43 -41 91 11 48 52 57 72
26 52 -16 -10 -23 -9 -39 5 -30 28 -68 22 -82 -13z m70 -6 c11 -13 10 -19 -8
-36 -17 -18 -23 -19 -36 -8 -21 17 -20 37 2 49 23 14 27 13 42 -5z"/>
<path d="M7340 4140 c0 -5 5 -10 10 -10 6 0 10 -9 10 -21 0 -11 4 -18 9 -15 4
3 21 -6 37 -19 32 -28 45 -30 62 -13 18 18 15 33 -3 18 -22 -18 -68 24 -59 54
6 19 5 19 -10 7 -13 -11 -20 -11 -28 -3 -15 15 -28 15 -28 2z"/>
<path d="M2517 4075 c-48 -45 -64 -76 -28 -53 16 10 23 9 39 -5 34 -31 92 -12
92 30 0 17 -37 73 -49 73 -4 0 -28 -20 -54 -45z m72 1 c28 -33 -27 -74 -57
-44 -9 9 -7 17 10 35 25 27 31 28 47 9z"/>
<path d="M2868 4102 c-9 -2 -21 -16 -26 -31 -8 -23 -6 -33 13 -57 13 -16 27
-26 31 -22 4 5 0 16 -9 26 -27 29 -21 49 6 24 35 -33 56 -27 24 6 -32 34 -24
52 10 20 27 -26 44 -17 19 11 -19 21 -42 29 -68 23z"/>
<path d="M7298 4036 c-27 -33 -27 -35 -10 -56 l18 -22 31 26 c49 41 61 30 18
-16 -14 -15 -21 -29 -16 -32 5 -3 23 10 40 30 26 28 30 39 20 50 -15 18 -43
18 -59 -1 -13 -16 -40 -20 -40 -7 0 5 9 17 20 27 11 10 20 22 20 27 0 17 -16
7 -42 -26z"/>
<path d="M2627 3999 c-34 -39 -34 -49 1 -82 l28 -27 39 40 c43 44 28 56 -17
13 -23 -22 -30 -24 -43 -13 -21 18 -19 33 10 60 25 23 32 40 17 40 -4 0 -20
-14 -35 -31z"/>
<path d="M2947 4023 c-13 -12 -7 -37 15 -60 28 -30 15 -43 -15 -15 -36 34 -55
27 -22 -8 32 -34 68 -37 73 -7 2 10 -4 27 -13 37 -30 33 -12 44 23 15 39 -33
42 -22 5 17 -26 27 -52 35 -66 21z"/>
<path d="M7200 3989 c0 -5 5 -7 10 -4 6 3 10 8 10 11 0 2 -4 4 -10 4 -5 0 -10
-5 -10 -11z"/>
<path d="M7230 3962 c0 -16 68 -74 82 -70 9 3 1 17 -23 41 -35 35 -59 47 -59
29z"/>
<path d="M2780 3945 c-7 -9 -15 -13 -18 -10 -3 3 -10 -3 -16 -14 -6 -10 -19
-30 -30 -45 -15 -21 -16 -29 -6 -41 18 -22 28 -18 23 8 -3 17 2 26 20 36 14 7
29 11 34 8 4 -3 9 12 9 34 2 44 1 45 -16 24z"/>
<path d="M3800 3895 c0 -37 4 -65 10 -65 6 0 10 9 10 20 0 14 7 20 21 20 34 0
59 19 59 45 0 28 -26 45 -69 45 l-31 0 0 -65z m75 20 c0 -14 -8 -21 -27 -23
-24 -3 -28 0 -28 23 0 23 4 26 28 23 19 -2 27 -9 27 -23z"/>
<path d="M3930 3895 c0 -37 4 -65 10 -65 6 0 10 9 10 20 0 13 7 20 20 20 10 0
24 -9 30 -20 6 -11 15 -20 21 -20 6 0 5 8 -2 21 -8 15 -8 24 0 32 18 18 13 55
-8 67 -11 5 -33 10 -50 10 l-31 0 0 -65z m75 20 c0 -14 -8 -21 -27 -23 -24 -3
-28 0 -28 23 0 23 4 26 28 23 19 -2 27 -9 27 -23z"/>
<path d="M4075 3935 c-14 -13 -25 -31 -25 -40 0 -23 45 -65 70 -65 25 0 70 42
70 65 0 23 -45 65 -70 65 -11 0 -32 -11 -45 -25z m79 -11 c9 -8 16 -22 16 -29
0 -20 -28 -45 -50 -45 -22 0 -50 25 -50 45 0 20 28 45 50 45 10 0 26 -7 34
-16z"/>
<path d="M4220 3895 c0 -37 4 -65 10 -65 6 0 10 11 10 25 0 21 5 25 30 25 17
0 30 5 30 10 0 6 -13 10 -30 10 -23 0 -30 4 -30 20 0 16 7 20 35 20 19 0 35 5
35 10 0 6 -20 10 -45 10 l-45 0 0 -65z"/>
<path d="M4330 3895 l0 -65 50 0 c28 0 50 5 50 10 0 6 -18 10 -40 10 -33 0
-40 3 -40 20 0 16 7 20 35 20 19 0 35 5 35 10 0 6 -16 10 -35 10 -24 0 -35 5
-35 15 0 10 11 15 35 15 19 0 35 5 35 10 0 6 -20 10 -45 10 l-45 0 0 -65z"/>
<path d="M4466 3947 c-27 -20 -16 -50 22 -62 45 -13 43 -38 -3 -33 -40 5 -48
-8 -11 -18 29 -7 66 11 66 32 0 8 -16 22 -35 30 -43 18 -48 46 -7 44 41 -3 49
-1 32 10 -21 13 -43 12 -64 -3z"/>
<path d="M4586 3947 c-27 -20 -16 -50 22 -62 45 -13 43 -38 -3 -33 -40 5 -48
-8 -11 -18 29 -7 66 11 66 32 0 8 -16 22 -35 30 -43 18 -48 46 -7 44 41 -3 49
-1 32 10 -21 13 -43 12 -64 -3z"/>
<path d="M4705 3935 c-14 -13 -25 -31 -25 -40 0 -22 45 -65 67 -65 35 0 63 29
63 65 0 61 -61 85 -105 40z m73 -7 c7 -7 12 -21 12 -33 0 -47 -62 -63 -81 -21
-22 47 33 90 69 54z"/>
<path d="M4840 3895 c0 -37 4 -65 10 -65 6 0 10 9 10 20 0 13 7 20 20 20 11 0
25 -9 32 -20 7 -11 19 -20 26 -20 10 0 10 5 -2 21 -13 19 -13 24 0 36 8 8 14
21 14 28 0 21 -41 45 -77 45 l-33 0 0 -65z m85 20 c0 -15 -8 -21 -32 -23 -30
-3 -33 -1 -33 23 0 24 3 26 33 23 24 -2 32 -8 32 -23z"/>
<path d="M5030 3895 c0 -37 4 -65 10 -65 6 0 10 9 10 20 0 14 7 20 21 20 34 0
59 19 59 45 0 28 -26 45 -69 45 l-31 0 0 -65z m75 20 c0 -14 -8 -21 -27 -23
-24 -3 -28 0 -28 23 0 23 4 26 28 23 19 -2 27 -9 27 -23z"/>
<path d="M5162 3898 c-29 -62 -32 -89 -8 -55 17 22 86 24 86 2 0 -8 6 -15 14
-15 11 0 8 14 -13 62 -16 34 -33 64 -39 66 -6 2 -24 -25 -40 -60z m48 23 c0
-5 3 -16 6 -25 4 -12 0 -16 -15 -16 -22 0 -25 8 -15 34 7 17 24 22 24 7z"/>
<path d="M5290 3905 c0 -43 4 -56 19 -65 50 -26 91 7 91 75 0 59 -18 58 -22
-1 -3 -50 -22 -72 -52 -61 -12 5 -16 19 -16 57 0 27 -4 50 -10 50 -5 0 -10
-25 -10 -55z"/>
<path d="M5430 3895 l0 -65 45 0 c25 0 45 5 45 10 0 6 -16 10 -35 10 l-35 0 0
55 c0 30 -4 55 -10 55 -6 0 -10 -28 -10 -65z"/>
<path d="M5555 3935 c-14 -13 -25 -31 -25 -40 0 -23 45 -65 70 -65 25 0 70 42
70 65 0 23 -45 65 -70 65 -11 0 -32 -11 -45 -25z m79 -11 c9 -8 16 -22 16 -29
0 -20 -28 -45 -50 -45 -22 0 -50 25 -50 45 0 20 28 45 50 45 10 0 26 -7 34
-16z"/>
<path d="M5750 3895 c0 -37 4 -65 10 -65 6 0 10 11 10 25 0 21 5 25 30 25 17
0 30 5 30 10 0 6 -13 10 -30 10 -23 0 -30 4 -30 20 0 16 7 20 35 20 19 0 35 5
35 10 0 6 -20 10 -45 10 l-45 0 0 -65z"/>
<path d="M5860 3895 c0 -37 4 -65 10 -65 6 0 10 9 10 20 0 13 7 20 20 20 11 0
25 -9 32 -20 7 -11 19 -20 26 -20 10 0 10 5 -2 21 -13 19 -13 24 0 36 8 8 14
21 14 28 0 21 -41 45 -77 45 l-33 0 0 -65z m85 20 c0 -15 -8 -21 -32 -23 -30
-3 -33 -1 -33 23 0 24 3 26 33 23 24 -2 32 -8 32 -23z"/>
<path d="M6000 3895 l0 -65 45 0 c25 0 45 5 45 10 0 6 -16 10 -35 10 -28 0
-35 4 -35 20 0 16 7 20 30 20 17 0 30 5 30 10 0 6 -13 10 -30 10 -20 0 -30 5
-30 15 0 10 11 15 35 15 19 0 35 5 35 10 0 6 -20 10 -45 10 l-45 0 0 -65z"/>
<path d="M6120 3895 c0 -37 4 -65 10 -65 6 0 10 28 10 65 0 37 -4 65 -10 65
-6 0 -10 -28 -10 -65z"/>
<path d="M6180 3895 c0 -37 4 -65 10 -65 6 0 10 9 10 20 0 13 7 20 20 20 10 0
24 -9 30 -20 6 -11 15 -20 21 -20 6 0 5 8 -2 21 -8 15 -8 24 0 32 18 18 13 55
-8 67 -11 5 -33 10 -50 10 l-31 0 0 -65z m75 20 c0 -14 -8 -21 -27 -23 -24 -3
-28 0 -28 23 0 23 4 26 28 23 19 -2 27 -9 27 -23z"/>
<path d="M6310 3895 l0 -65 50 0 c28 0 50 5 50 10 0 6 -18 10 -40 10 -33 0
-40 3 -40 20 0 16 7 20 35 20 19 0 35 5 35 10 0 6 -16 10 -35 10 -24 0 -35 5
-35 15 0 10 11 15 35 15 19 0 35 5 35 10 0 6 -20 10 -45 10 l-45 0 0 -65z"/>
<path d="M7158 3891 l-33 -29 40 -36 c22 -19 43 -35 48 -36 17 -1 5 20 -23 40
-35 25 -38 45 -9 61 18 9 25 7 48 -15 15 -14 34 -26 42 -26 16 1 -54 70 -71
70 -5 0 -24 -13 -42 -29z"/>
<path d="M2818 3864 c-4 -5 4 -20 18 -33 24 -23 31 -41 16 -41 -5 0 -17 9 -27
20 -22 24 -61 26 -69 3 -9 -22 54 -86 76 -78 8 3 24 19 36 34 l21 29 -33 38
c-18 21 -35 33 -38 28z m12 -96 c0 -13 -27 -9 -40 7 -19 23 -1 39 21 19 10 -9
19 -21 19 -26z"/>
<path d="M3104 3862 c-6 -4 -16 -17 -23 -30 -10 -19 -10 -28 4 -48 9 -14 23
-28 31 -31 19 -7 116 85 107 101 -4 6 -8 6 -11 -2 -5 -17 -37 -15 -52 3 -13
16 -38 19 -56 7z m52 -26 c19 -14 19 -15 -5 -40 -19 -20 -27 -23 -38 -15 -16
14 -17 41 -1 57 15 15 20 15 44 -2z"/>
<path d="M7060 3850 c0 -5 5 -10 10 -10 6 0 10 5 10 10 0 6 -4 10 -10 10 -5 0
-10 -4 -10 -10z"/>
<path d="M7097 3822 c-8 -12 58 -75 72 -71 7 3 -6 21 -27 43 -22 21 -42 34
-45 28z"/>
<path d="M3187 3752 c-23 -26 -21 -45 8 -72 28 -26 34 -17 8 12 -23 25 -10 33
21 13 28 -18 36 -6 11 15 -8 7 -15 16 -15 21 0 14 26 10 40 -6 7 -8 17 -15 23
-15 6 0 0 11 -13 25 -28 30 -60 32 -83 7z"/>
<path d="M3918 3616 c-82 -84 -148 -155 -148 -159 0 -4 596 -7 1325 -7 729 0
1325 1 1325 3 0 1 -69 73 -153 160 l-152 157 -1025 -1 -1025 -2 -147 -151z
m1242 79 c-7 -8 -19 -15 -27 -15 -13 0 -13 3 -3 15 7 8 19 15 27 15 13 0 13
-3 3 -15z m-721 -39 c16 -19 -2 -30 -26 -18 -39 20 -83 -21 -67 -62 9 -23 45
-36 67 -24 24 12 42 1 26 -18 -6 -8 -27 -14 -46 -14 -41 0 -83 37 -83 75 0 38
42 75 83 75 19 0 40 -6 46 -14z m137 -53 c16 -37 31 -71 32 -75 8 -18 -28 -7
-38 12 -7 13 -21 20 -40 20 -19 0 -33 -7 -40 -20 -10 -19 -46 -30 -38 -12 45
109 63 142 78 142 11 0 27 -22 46 -67z m168 51 c20 -19 21 -59 2 -76 -11 -11
-11 -16 1 -35 13 -20 13 -23 1 -23 -8 0 -23 9 -33 20 -10 11 -26 20 -37 20
-11 0 -18 -7 -18 -20 0 -11 -7 -20 -15 -20 -12 0 -15 15 -15 75 l0 75 49 0
c32 0 55 -6 65 -16z m107 -30 l34 -46 3 46 c2 32 7 46 18 46 11 0 14 -16 14
-75 0 -90 -11 -95 -61 -29 l-34 46 -3 -46 c-2 -32 -7 -46 -18 -46 -11 0 -14
16 -14 75 0 90 11 95 61 29z m215 -21 c16 -37 31 -71 32 -75 8 -18 -28 -7 -38
12 -7 13 -21 20 -40 20 -19 0 -33 -7 -40 -20 -10 -19 -46 -30 -38 -12 45 109
63 142 78 142 11 0 27 -22 46 -67z m84 -8 c0 -60 -3 -75 -15 -75 -12 0 -15 15
-15 75 0 60 3 75 15 75 12 0 15 -15 15 -75z m150 60 c7 -8 10 -24 7 -35 -3
-11 -1 -23 4 -26 13 -8 11 -48 -3 -62 -7 -7 -36 -12 -65 -12 l-53 0 0 75 0 75
49 0 c31 0 53 -5 61 -15z m156 -52 c16 -37 31 -71 32 -75 8 -18 -28 -7 -38 12
-7 13 -21 20 -40 20 -19 0 -33 -7 -40 -20 -10 -19 -46 -30 -38 -12 45 109 63
142 78 142 11 0 27 -22 46 -67z m358 51 c36 -36 9 -94 -45 -94 -22 0 -29 -5
-29 -20 0 -11 -7 -20 -15 -20 -12 0 -15 15 -15 75 l0 75 44 0 c27 0 51 -6 60
-16z m156 6 c0 -5 -18 -10 -40 -10 -33 0 -40 -3 -40 -20 0 -16 7 -20 35 -20
19 0 35 -4 35 -10 0 -5 -16 -10 -35 -10 -31 0 -35 -3 -35 -25 0 -22 4 -25 40
-25 22 0 40 -4 40 -10 0 -5 -25 -10 -55 -10 l-55 0 0 75 0 75 55 0 c30 0 55
-4 55 -10z m-350 -80 c0 -5 -13 -10 -30 -10 -16 0 -30 5 -30 10 0 6 14 10 30
10 17 0 30 -4 30 -10z"/>
<path d="M4520 3621 c0 -5 -3 -16 -6 -25 -4 -12 0 -16 16 -16 16 0 20 4 16 16
-3 9 -6 20 -6 25 0 5 -4 9 -10 9 -5 0 -10 -4 -10 -9z"/>
<path d="M4660 3615 c0 -25 4 -35 16 -35 24 0 54 19 54 35 0 16 -30 35 -54 35
-12 0 -16 -10 -16 -35z"/>
<path d="M5010 3621 c0 -5 -3 -16 -6 -25 -4 -12 0 -16 16 -16 16 0 20 4 16 16
-3 9 -6 20 -6 25 0 5 -4 9 -10 9 -5 0 -10 -4 -10 -9z"/>
<path d="M5220 3630 c0 -17 5 -21 28 -18 16 2 27 9 27 18 0 9 -11 16 -27 18
-23 3 -28 -1 -28 -18z"/>
<path d="M5220 3565 c0 -26 19 -32 54 -19 35 13 11 44 -35 44 -14 0 -19 -7
-19 -25z"/>
<path d="M5400 3621 c0 -5 -3 -16 -6 -25 -4 -12 0 -16 16 -16 16 0 20 4 16 16
-3 9 -6 20 -6 25 0 5 -4 9 -10 9 -5 0 -10 -4 -10 -9z"/>
<path d="M5740 3615 c0 -36 10 -42 44 -29 22 8 20 41 -3 54 -32 17 -41 12 -41
-25z"/>
<path d="M6996 3721 l-48 -48 32 -37 c18 -20 38 -36 46 -36 22 0 17 14 -16 40
-32 27 -36 40 -19 57 9 9 22 4 50 -19 48 -39 63 -30 19 11 -21 19 -31 35 -27
45 9 23 33 20 62 -10 14 -14 30 -22 36 -19 13 9 -48 65 -71 65 -9 0 -37 -22
-64 -49z"/>
<path d="M2888 3744 c-18 -9 -28 -23 -28 -37 0 -13 12 -35 28 -50 l27 -26 53
51 c29 28 51 53 48 56 -3 2 -12 -1 -20 -8 -13 -10 -20 -8 -42 9 -31 25 -31 25
-66 5z m62 -24 c12 -7 11 -13 -10 -34 -29 -32 -38 -32 -46 -2 -10 42 18 60 56
36z"/>
<path d="M6887 3664 c-3 -4 -1 -14 6 -25 9 -14 8 -22 -6 -37 -9 -10 -17 -28
-17 -39 0 -25 30 -53 56 -53 24 0 79 54 70 68 -12 20 -103 91 -109 86z m83
-105 c0 -5 -10 -13 -21 -20 -18 -9 -25 -7 -42 10 -20 20 -20 21 -2 41 l18 20
24 -22 c13 -12 23 -25 23 -29z"/>
<path d="M2977 3642 c-22 -24 -21 -55 1 -75 38 -34 92 -13 92 36 0 49 -61 75
-93 39z m71 -28 c4 -28 -24 -51 -46 -38 -23 15 -25 29 -6 48 21 22 48 17 52
-10z"/>
<path d="M3075 3540 c-43 -44 -28 -56 16 -14 28 26 53 26 42 -1 -6 -17 12 -20
23 -4 3 6 -4 22 -18 35 l-24 24 -39 -40z"/>
<path d="M6747 3522 c-7 -10 54 -152 65 -152 4 0 5 11 2 26 -10 38 30 77 69
68 58 -12 22 19 -48 43 -76 25 -82 26 -88 15z m64 -33 c16 -8 18 -13 8 -25
-16 -20 -24 -18 -37 11 -13 28 -4 32 29 14z"/>
<path d="M3152 3474 c-12 -8 -22 -24 -22 -34 0 -23 45 -78 56 -67 4 4 -3 18
-16 32 -13 14 -20 28 -17 32 4 3 18 -4 32 -17 31 -29 46 -18 17 13 -12 13 -22
26 -22 30 0 13 27 7 40 -8 7 -8 17 -15 23 -15 6 0 0 11 -13 25 -27 29 -47 31
-78 9z"/>
<path d="M3236 3395 c-3 -8 6 -27 19 -43 32 -38 19 -50 -17 -15 -15 14 -31 23
-35 19 -10 -10 55 -68 70 -63 6 2 15 11 21 20 8 12 5 22 -12 40 -12 13 -22 26
-22 30 0 14 28 6 45 -13 10 -11 23 -20 28 -20 6 0 -2 14 -18 30 -31 32 -69 40
-79 15z"/>
<path d="M4598 3298 c-3 -29 -7 -33 -35 -36 -25 -2 -33 -8 -33 -23 0 -14 7
-19 25 -19 26 0 31 -13 19 -57 -5 -18 -14 -23 -40 -23 -27 0 -34 -4 -34 -20 0
-16 7 -20 31 -20 31 0 31 -1 26 -35 -5 -29 -3 -35 12 -35 12 0 21 11 27 33 8
25 16 33 38 35 28 4 29 2 23 -33 -5 -33 -4 -36 16 -33 17 2 23 11 25 36 3 29
6 32 36 32 25 0 35 5 39 20 4 17 0 20 -24 20 -24 0 -29 4 -29 24 0 41 11 56
40 56 16 0 30 7 34 16 9 23 8 24 -25 24 -31 0 -31 1 -26 36 5 32 4 35 -16 32
-15 -2 -23 -12 -27 -33 -4 -24 -11 -31 -34 -33 -28 -4 -29 -2 -23 32 5 33 4
36 -18 36 -19 0 -24 -6 -27 -32z m78 -112 c-3 -11 -6 -24 -6 -28 0 -5 -12 -8
-26 -8 -24 0 -25 3 -19 27 8 32 22 44 42 36 9 -4 12 -14 9 -27z"/>
<path d="M4835 3244 c-9 -9 -15 -26 -13 -38 3 -18 11 -21 56 -24 56 -3 75 -20
52 -47 -15 -18 -91 -20 -108 -3 -17 17 -27 2 -12 -17 10 -12 27 -15 63 -13 41
2 54 8 71 31 29 39 13 61 -50 67 -35 4 -49 9 -49 20 0 19 80 26 101 9 17 -14
29 -6 21 16 -9 22 -110 21 -132 -1z"/>
<path d="M5003 3238 c-24 -27 -38 -109 -21 -126 14 -14 158 -16 158 -2 0 5
-30 10 -67 12 -65 3 -68 4 -68 28 0 23 4 25 58 28 71 4 75 20 5 24 -39 2 -53
7 -53 18 0 12 16 16 73 18 91 4 95 22 4 22 -58 0 -72 -3 -89 -22z"/>
<path d="M5177 3253 c-13 -24 -28 -104 -25 -129 4 -31 11 -22 23 29 5 25 10
28 38 25 26 -2 33 -8 35 -30 3 -28 28 -56 39 -44 4 3 1 12 -5 18 -18 18 -14
56 7 67 25 14 34 40 20 57 -12 15 -124 20 -132 7z m111 -30 c-4 -23 -98 -33
-98 -10 0 22 11 27 57 27 37 0 44 -3 41 -17z"/>
<path d="M5332 3058 l-10 -38 159 0 c95 0 159 4 159 10 0 21 -44 30 -151 30
-95 0 -114 -3 -125 -17 -16 -23 -29 -11 -15 15 10 18 22 20 146 21 92 1 135
-2 135 -9 0 -6 5 -8 10 -5 6 3 10 12 10 18 0 9 -42 12 -154 12 l-155 0 -9 -37z
m278 -18 c0 -6 -45 -10 -115 -10 -70 0 -115 4 -115 10 0 6 45 10 115 10 70 0
115 -4 115 -10z"/>
<path d="M4736 2985 c-4 -36 -9 -79 -13 -96 l-6 -30 77 3 c88 3 103 22 20 26
-50 3 -55 5 -52 25 3 19 11 23 57 27 73 7 82 30 12 30 -48 0 -51 2 -51 25 0
23 3 25 49 25 56 0 84 8 75 21 -3 5 -40 9 -83 9 l-78 0 -7 -65z"/>
<path d="M4927 3043 c-15 -14 -6 -23 22 -23 17 0 32 -4 35 -9 4 -5 0 -40 -8
-77 -8 -38 -13 -71 -10 -73 13 -14 35 -7 38 12 3 12 10 50 17 85 12 61 12 62
45 62 24 0 34 5 34 15 0 12 -16 15 -83 15 -46 0 -87 -3 -90 -7z"/>
<path d="M5126 3023 c-3 -16 -8 -48 -11 -73 -3 -25 -8 -57 -11 -71 l-5 -25 78
2 c62 2 79 6 81 18 3 13 -7 16 -58 16 -58 0 -61 1 -58 23 3 19 10 23 57 27 73
7 82 30 12 30 -48 0 -51 2 -51 25 0 24 3 25 59 25 43 0 60 4 65 15 4 13 -8 15
-74 15 -78 0 -78 0 -84 -27z"/>
<path d="M5306 2923 c-2 -10 -7 -28 -11 -40 -6 -22 -6 -22 154 -25 89 -2 161
-1 161 2 0 3 4 22 9 43 l9 37 -158 0 c-143 0 -159 -2 -164 -17z"/>
</g>
</svg>
